# xmcd CD database file
#
# Track frame offsets:
#	150
#	20749
#	40474
#	53876
#	69513
#	87468
#	118173
#	135881
#	163563
#	179172
#	195611
#	219055
#	236785
#	256844
#	283375
#	302254
#
# Disc length: 4216 seconds
#
# Revision: 0
# Processed by: cddbd v1.5.2PL0 Copyright (c) Steve Scherf et al.
# Submitted via: CDex 1.51
#
DISCID=e8107610
DTITLE=Christopher Dell - Future Of The Smallest Form
DYEAR=2000
DGENRE=Jazz
TTITLE0=einundvierzig
TTITLE1=dreiundvierzig (für Vic Feldmann)
TTITLE2=vierundvierzig a (der Geigentest)
TTITLE3=neunundsiebzig (für Anton W.)
TTITLE4=fünfunddreissig
TTITLE5=sechsundvierzg (Montserrat)
TTITLE6=siebenundvierzig (Miro)
TTITLE7=dreiundvierzig a (Opéra)
TTITLE8=vierundfünfzig (Frühstücksstückchen)
TTITLE9=einunddreissig
TTITLE10=fünfundvierzig (für Bill Evans)
TTITLE11=zweiundvierzig (Köln-Brüssel)
TTITLE12=achtundvierzig
TTITLE13=siebenunddreissig
TTITLE14=fünfundsiebzig (eâodate mozâ af)
TTITLE15=dreiundreissig
EXTD=YEAR: 2000
EXTT0=
EXTT1=
EXTT2=
EXTT3=
EXTT4=
EXTT5=
EXTT6=
EXTT7=
EXTT8=
EXTT9=
EXTT10=
EXTT11=
EXTT12=
EXTT13=
EXTT14=
EXTT15=
PLAYORDER=
